<svg class="svg-icon" style="vertical-align: middle;fill: #FFFFFF;overflow: hidden;" viewBox="0 0 1024 1024" version="1.1" xmlns="http://www.w3.org/2000/svg"><path d="M767.5 495.7c-7.9-127.5-111.7-231.3-239.2-239.2-84.6-5.2-160.9 30.6-211.2 89.5 132.8 107 278.1 235.7 325.6 386.1 79.4-47.3 131.1-136.1 124.8-236.4z" fill="#FFDE55" /><path d="M780 494.9c-4-64.7-31.9-126-78.4-172.5S593.8 248 529.1 244c-38-2.4-75 3-110.2 16.1-33.8 12.5-64.4 31.4-90.8 56.2-26.4 24.9-47.3 54.2-61.9 87.3-15.1 34.2-22.8 70.7-22.8 108.4v195.2c0 40.5 32.9 73.4 73.4 73.4H512c37.7 0 74.2-7.7 108.4-22.8 33.1-14.6 62.4-35.4 87.3-61.9 24.8-26.4 43.7-56.9 56.2-90.8 13.1-35.2 18.5-72.3 16.1-110.2z m-90.5 183.9C643 728.3 579.9 755.5 512 755.5H316.8c-26.7 0-48.4-21.7-48.4-48.4V512c0-67.9 27.3-131 76.8-177.5 45.7-42.9 104.3-66 166.6-66 5.2 0 10.5 0.2 15.7 0.5 122.1 7.6 219.9 105.4 227.5 227.5 4.3 68-19 132.8-65.5 182.3z" fill="" /><path d="M657.6 464.4c-29 0-52.7 23.6-52.7 52.7 0 29 23.6 52.7 52.7 52.7s52.7-23.6 52.7-52.7-23.7-52.7-52.7-52.7z m0 80.3c-15.3 0-27.7-12.4-27.7-27.7 0-15.3 12.4-27.7 27.7-27.7s27.7 12.4 27.7 27.7c0 15.3-12.5 27.7-27.7 27.7zM507 464.4c-29 0-52.7 23.6-52.7 52.7 0 29 23.6 52.7 52.7 52.7s52.7-23.6 52.7-52.7c-0.1-29.1-23.7-52.7-52.7-52.7z m0 80.3c-15.3 0-27.7-12.4-27.7-27.7 0-15.3 12.4-27.7 27.7-27.7s27.7 12.4 27.7 27.7c-0.1 15.3-12.5 27.7-27.7 27.7zM356.4 464.4c-29 0-52.7 23.6-52.7 52.7 0 29 23.6 52.7 52.7 52.7 29 0 52.7-23.6 52.7-52.7-0.1-29.1-23.7-52.7-52.7-52.7z m0 80.3c-15.3 0-27.7-12.4-27.7-27.7 0-15.3 12.4-27.7 27.7-27.7 15.3 0 27.7 12.4 27.7 27.7-0.1 15.3-12.5 27.7-27.7 27.7z" fill="" /></svg>